<?xml version="1.0" encoding="utf-8"?>
<!-- Generator: Adobe Illustrator 17.0.0, SVG Export Plug-In . SVG Version: 6.00 Build 0)  -->
<!DOCTYPE svg PUBLIC "-//W3C//DTD SVG 1.1//EN" "http://www.w3.org/Graphics/SVG/1.1/DTD/svg11.dtd">
<svg version="1.1" id="Layer_1" xmlns="http://www.w3.org/2000/svg" xmlns:xlink="http://www.w3.org/1999/xlink" x="0px" y="0px"
	 width="1920px" height="1920px" viewBox="0 0 1920 1920" enable-background="new 0 0 1920 1920" xml:space="preserve">
<g>
	<path fill="#4B4B4B" d="M567,777L433.5,912l432,432l960-960l-135-135l-825,826.5L567,777z M1728,960c0,423-345,768-768,768
		s-768-345-768-768s345-768,768-768c76.5,0,144,9,211.5,28.5l153-153C1209,28.5,1084.5,0,960,0C432,0,0,432,0,960s432,960,960,960
		s960-432,960-960H1728z"/>
</g>
</svg>
